<svg id="icons" enable-background="new 0 0 64 64" height="512" viewBox="0 0 64 64" width="512" xmlns="http://www.w3.org/2000/svg"><path d="m18 50.491c-1.654 0-3 1.346-3 3s1.346 3 3 3 3-1.346 3-3-1.346-3-3-3zm0 4c-.552 0-1-.448-1-1s.448-1 1-1 1 .448 1 1-.448 1-1 1z"/><path d="m30 50.491c-1.654 0-3 1.346-3 3s1.346 3 3 3 3-1.346 3-3-1.346-3-3-3zm0 4c-.552 0-1-.448-1-1s.448-1 1-1 1 .448 1 1-.448 1-1 1z"/><path d="m42 50.491c-1.654 0-3 1.346-3 3s1.346 3 3 3 3-1.346 3-3-1.346-3-3-3zm0 4c-.552 0-1-.448-1-1s.448-1 1-1 1 .448 1 1-.448 1-1 1z"/><path d="m25 55.491v-4c0-.553-.447-1-1-1s-1 .447-1 1v4c0 .553.447 1 1 1s1-.447 1-1z"/><path d="m37 55.491v-4c0-.553-.447-1-1-1s-1 .447-1 1v4c0 .553.447 1 1 1s1-.447 1-1z"/><path d="m49 55.491v-4c0-.553-.447-1-1-1s-1 .447-1 1v4c0 .553.447 1 1 1s1-.447 1-1z"/><path d="m26 63.5c1.654 0 3-1.346 3-3s-1.346-3-3-3-3 1.346-3 3 1.346 3 3 3zm0-4c.552 0 1 .448 1 1s-.448 1-1 1-1-.448-1-1 .448-1 1-1z"/><path d="m38 63.5c1.654 0 3-1.346 3-3s-1.346-3-3-3-3 1.346-3 3 1.346 3 3 3zm0-4c.552 0 1 .448 1 1s-.448 1-1 1-1-.448-1-1 .448-1 1-1z"/><path d="m21 62.5v-4c0-.553-.447-1-1-1s-1 .447-1 1v4c0 .553.447 1 1 1s1-.447 1-1z"/><path d="m31 58.5v4c0 .553.447 1 1 1s1-.447 1-1v-4c0-.553-.447-1-1-1s-1 .447-1 1z"/><path d="m43 58.5v4c0 .553.447 1 1 1s1-.447 1-1v-4c0-.553-.447-1-1-1s-1 .447-1 1z"/><path d="m49.879 11.553c-3.334-6.614-10.223-11.053-17.879-11.053-10.006 0-18.295 7.394-19.75 17h-.25c-6.617 0-12 5.384-12 12.001v4.002c0 6.618 5.383 12.002 12 12.002h1v2.986c0 .553.447 1 1 1s1-.447 1-1v-2.986h2.18c-.109.31-.18.639-.18.986 0 1.654 1.346 3 3 3s3-1.346 3-3c0-.348-.071-.676-.18-.986h2.18v2.986c0 .553.447 1 1 1s1-.447 1-1v-2.986h2.18c-.109.31-.18.639-.18.986 0 1.654 1.346 3 3 3s3-1.346 3-3c0-.348-.071-.676-.18-.986h2.18v2.986c0 .553.447 1 1 1s1-.447 1-1v-2.986h2.18c-.109.31-.18.639-.18.986 0 1.654 1.346 3 3 3s3-1.346 3-3c0-.348-.071-.676-.18-.986h2.18v2.986c0 .553.447 1 1 1s1-.447 1-1v-3.136c7.327-.983 13-7.261 13-14.854v-4.001c0-7.92-6.279-14.483-14.121-14.947zm-28.879 34.938c0 .552-.448 1-1 1s-1-.448-1-1c0-.527.414-.95.933-.986h.135c.518.036.932.459.932.986zm12 0c0 .552-.448 1-1 1s-1-.448-1-1c0-.527.414-.95.933-.986h.135c.518.036.932.459.932.986zm12 0c0 .552-.448 1-1 1s-1-.448-1-1c0-.527.414-.95.933-.986h.135c.518.036.932.459.932.986zm4-2.986h-4.865c-.045-.002-.089-.014-.135-.014s-.09.012-.135.014h-5.798c-.023-.002-.043-.014-.067-.014s-.044.012-.067.014h-5.798c-.045-.002-.089-.014-.135-.014s-.09.012-.135.014h-5.798c-.023-.002-.043-.014-.067-.014s-.044.012-.067.014h-5.798c-.045-.002-.089-.014-.135-.014s-.09.012-.135.014h-5.798c-.023-.002-.043-.014-.067-.014s-.044.012-.067.014h-1.933c-4.285 0-7.939-2.716-9.359-6.513 2.201 2.744 5.575 4.509 9.359 4.509h37c4.924 0 9.287-2.395 12.023-6.069-1.946 4.731-6.599 8.073-12.023 8.073zm0-4.004h-37c-5.514 0-10-4.486-10-10 0-5.515 4.486-10.001 10-10.001h.051c-.017.333-.051.663-.051 1 0 .552.447 1 1 1s1-.448 1-1c0-9.925 8.075-18 18-18 8.427 0 15.827 5.969 17.597 14.193.267 1.241.403 2.522.403 3.807 0 .552.447 1 1 1s1-.448 1-1c0-1.427-.15-2.849-.448-4.228-.195-.906-.468-1.778-.78-2.631 6.317.875 11.228 6.338 11.228 12.859 0 7.169-5.832 13.001-13 13.001z"/><path d="m41.797 22.896c-.015-.02-.036-.028-.052-.046-.045-.052-.097-.093-.152-.135-.05-.038-.098-.076-.153-.103-.055-.028-.113-.043-.175-.061-.066-.019-.13-.036-.198-.04-.024-.002-.045-.014-.069-.014-.041 0-.076.019-.116.023-.066.008-.13.018-.195.04-.066.022-.125.053-.185.088-.034.02-.072.025-.104.049l-1.997 1.5c-.441.332-.53.959-.199 1.4.196.262.497.399.801.399.209 0 .42-.065.6-.2l.069-.052c-.975 3.32-4.043 5.752-7.673 5.752-2.425 0-4.691-1.083-6.22-2.971-.347-.429-.978-.497-1.406-.148-.43.348-.496.977-.148 1.406 1.91 2.36 4.743 3.713 7.774 3.713 4.633 0 8.529-3.172 9.659-7.456l.044.058c.196.262.497.399.801.399.209 0 .42-.065.6-.2.441-.332.53-.958.199-1.4z"/><path d="m25.598 22.795c.441-.332.529-.959.197-1.4-.331-.44-.957-.53-1.4-.197l-.067.051c.976-3.318 4.043-5.749 7.672-5.749 2.425 0 4.691 1.083 6.22 2.971.347.429.978.497 1.406.148.43-.348.496-.977.148-1.406-1.91-2.36-4.743-3.713-7.774-3.713-4.632 0-8.527 3.17-9.658 7.453l-.04-.053c-.331-.441-.957-.533-1.4-.201-.441.331-.532.958-.201 1.4l1.499 2.002c.001 0 .001.001.002.001.013.017.032.022.046.038.068.08.149.143.24.198.026.017.045.047.073.061.008.004.017.002.024.006.128.059.266.096.415.096h.001c.104 0 .209-.017.311-.05.015-.005.027-.016.042-.021.04-.016.074-.038.111-.059.045-.023.093-.039.135-.07 0 0 0 0 .001-.001h.001z"/></svg>